<svg width="48" height="48" version="1.1" id="Layer_1" xmlns="http://www.w3.org/2000/svg" xmlns:xlink="http://www.w3.org/1999/xlink" x="0px" y="0px" viewBox="0 0 85.04 85.04" enable-background="new 0 0 85.04 85.04" xml:space="preserve">
	<g>
		<g>
			<path fill="#E20A77" d="M42.79,72.48H14.7c-1.04,0-1.88-0.84-1.88-1.88V32.27c0-0.56,0.25-1.09,0.69-1.45l22.25-18.23 c0.69-0.57,1.69-0.57,2.38,0L60.4,30.82c0.44,0.36,0.69,0.89,0.69,1.45v4.75c0,1.04-0.84,1.88-1.88,1.88s-1.88-0.84-1.88-1.88 v-3.87l-20.38-16.7l-20.38,16.7v35.57h26.21c1.04,0,1.88,0.84,1.88,1.88C44.66,71.64,43.82,72.48,42.79,72.48z"/>
		</g>
		<g>
			<path fill="#6B247D" d="M70.34,72.48H48.08c-1.04,0-1.88-0.84-1.88-1.88V51.43c0-0.56,0.25-1.09,0.69-1.45l11.13-9.12
			c0.69-0.57,1.69-0.57,2.38,0l11.13,9.12c0.44,0.36,0.69,0.89,0.69,1.45V70.6C72.21,71.64,71.37,72.48,70.34,72.48z M49.96,68.72
			h18.5v-16.4l-9.25-7.58l-9.25,7.58V68.72z"/>
		</g>
		<g>
			<path fill="#E20A77" d="M59.21,67.18c-1.04,0-1.88-0.84-1.88-1.88V49.38c0-1.04,0.84-1.88,1.88-1.88s1.88,0.84,1.88,1.88V65.3
			C61.09,66.34,60.25,67.18,59.21,67.18z"/>
		</g>
	</g>
	<g>
		<path fill="#6B247D" d="M83.16,72.48H1.88C0.84,72.48,0,71.64,0,70.6c0-1.04,0.84-1.88,1.88-1.88h81.29c1.04,0,1.88,0.84,1.88,1.88
		C85.04,71.64,84.2,72.48,83.16,72.48z"/>
	</g>
</svg>
