<svg width="48" height="48" version="1.1" id="Layer_1" xmlns="http://www.w3.org/2000/svg" xmlns:xlink="http://www.w3.org/1999/xlink" x="0px" y="0px" viewBox="0 0 85.04 85.04" enable-background="new 0 0 85.04 85.04" xml:space="preserve">
	<g>
		<path fill="none" stroke="#E20A77" stroke-width="3.753" stroke-linecap="round" stroke-linejoin="round" stroke-miterlimit="10" d="M33.17,70.81"/>
	</g>
	<g>
		<g>
			<path fill="#E20A77" d="M68.32,72.68H46.06c-1.04,0-1.88-0.84-1.88-1.88V51.64c0-0.56,0.25-1.1,0.69-1.45L56,41.07 c0.69-0.57,1.69-0.57,2.38,0l11.13,9.12c0.44,0.36,0.69,0.89,0.69,1.45v19.17C70.2,71.84,69.36,72.68,68.32,72.68z M47.94,68.93 h18.51v-16.4l-9.25-7.58l-9.25,7.58V68.93z"/>
		</g>
		<g>
			<path fill="#E20A77" d="M53.66,39.79c-1.04,0-1.88-0.84-1.88-1.88V24.24l-9.25-7.58l-9.94,8.14c-0.8,0.66-1.98,0.54-2.64-0.26
			c-0.66-0.8-0.54-1.98,0.26-2.64l11.13-9.12c0.69-0.57,1.69-0.57,2.38,0l11.13,9.12c0.44,0.36,0.69,0.89,0.69,1.45v14.56
			C55.54,38.95,54.7,39.79,53.66,39.79z"/>
		</g>
		<g>
			<path fill="#6B247D" d="M39,72.68H16.74c-1.04,0-1.88-0.84-1.88-1.88V38.35c0-0.56,0.25-1.1,0.69-1.45l11.13-9.12
			c0.69-0.57,1.69-0.57,2.38,0l11.13,9.12c0.44,0.36,0.69,0.89,0.69,1.45v32.46C40.88,71.84,40.03,72.68,39,72.68z M18.62,68.93
			h18.51V39.24l-9.25-7.58l-9.25,7.58V68.93z"/>
		</g>
		<g>
			<path fill="#E20A77" d="M53.66,67.39c-1.04,0-1.88-0.84-1.88-1.88V52.83c0-1.04,0.84-1.88,1.88-1.88c1.04,0,1.88,0.84,1.88,1.88
			v12.68C55.54,66.55,54.7,67.39,53.66,67.39z"/>
		</g>
		<g>
			<path fill="#E20A77" d="M27.87,67.39c-1.04,0-1.88-0.84-1.88-1.88v-27.6c0-1.04,0.84-1.88,1.88-1.88s1.88,0.84,1.88,1.88v27.6
			C29.75,66.55,28.91,67.39,27.87,67.39z"/>
		</g>
	</g>
	<g>
		<path fill="#6B247D" d="M83.18,72.68H1.88C0.84,72.68,0,71.84,0,70.81s0.84-1.88,1.88-1.88h81.31c1.04,0,1.88,0.84,1.88,1.88
		S84.22,72.68,83.18,72.68z"/>
	</g>
</svg>
